<svg xmlns="http://www.w3.org/2000/svg" xmlns:xlink="http://www.w3.org/1999/xlink" width="2048" zoomAndPan="magnify" viewBox="0 0 1536 1228.499963" height="1638" preserveAspectRatio="xMidYMid meet" version="1.0"><defs><clipPath id="b306cd5dbe"><path d="M 0.3125 0 L 1535.6875 0 L 1535.6875 1228 L 0.3125 1228 Z M 0.3125 0 " clip-rule="nonzero"/></clipPath><clipPath id="c387871ae6"><path d="M 230.09375 177 L 1305.90625 177 L 1305.90625 1064.636719 L 230.09375 1064.636719 Z M 230.09375 177 " clip-rule="nonzero"/></clipPath></defs><g clip-path="url(#b306cd5dbe)"><path fill="#ffffff" d="M 0.3125 0 L 1535.6875 0 L 1535.6875 1228 L 0.3125 1228 Z M 0.3125 0 " fill-opacity="1" fill-rule="nonzero"/><path fill="#ffffff" d="M 0.3125 0 L 1535.6875 0 L 1535.6875 1228 L 0.3125 1228 Z M 0.3125 0 " fill-opacity="1" fill-rule="nonzero"/></g><g clip-path="url(#c387871ae6)"><path fill="#100f0d" d="M 655.796875 1017.4375 C 642.125 1032.09375 619.0625 1032.875 603.621094 1018.453125 C 590.445312 1006.152344 588.515625 986.300781 598.183594 971.761719 L 669.476562 895.402344 C 671.445312 893.285156 673.257812 891.0625 674.941406 888.773438 L 680.59375 882.722656 C 687.648438 875.160156 697.1875 871.292969 706.902344 871.292969 C 716.019531 871.292969 725.289062 874.710938 732.78125 881.707031 C 747.425781 895.390625 748.214844 918.4375 734.535156 933.09375 Z M 576.183594 943.082031 C 574.203125 945.199219 572.402344 947.410156 570.734375 949.699219 L 565.066406 955.769531 C 558.4375 962.867188 549.445312 966.957031 539.742188 967.289062 C 529.871094 967.476562 520.769531 964.152344 512.886719 956.785156 C 499.714844 944.488281 497.785156 924.636719 507.449219 910.097656 L 578.746094 833.742188 C 580.722656 831.617188 582.523438 829.40625 584.191406 827.117188 L 589.863281 821.054688 C 596.488281 813.949219 605.480469 809.859375 615.195312 809.527344 C 615.613281 809.515625 616.042969 809.507812 616.460938 809.507812 C 625.707031 809.507812 634.496094 812.984375 642.046875 820.042969 C 649.140625 826.667969 653.234375 835.664062 653.574219 845.371094 C 653.828125 853.039062 651.683594 860.414062 647.515625 866.683594 Z M 485.449219 881.417969 C 483.472656 883.539062 481.667969 885.753906 480.003906 888.03125 L 474.332031 894.105469 C 467.707031 901.199219 458.714844 905.292969 449.007812 905.625 C 439.226562 905.945312 430.046875 902.496094 422.15625 895.117188 C 408.992188 882.820312 407.054688 862.96875 416.71875 848.4375 L 488.011719 772.078125 C 488.011719 772.078125 488.011719 772.066406 488.023438 772.066406 C 490 769.953125 491.8125 767.71875 493.5 765.421875 L 499.140625 759.386719 C 506.183594 751.835938 515.734375 747.957031 525.4375 747.957031 C 534.558594 747.957031 543.832031 751.378906 551.316406 758.363281 C 564.480469 770.671875 566.410156 790.523438 556.742188 805.054688 Z M 394.726562 819.75 C 392.75 821.863281 390.949219 824.085938 389.273438 826.375 L 383.609375 832.4375 C 369.921875 847.09375 346.878906 847.875 331.425781 833.449219 C 324.332031 826.824219 320.238281 817.828125 319.90625 808.125 C 319.566406 798.417969 323.035156 789.160156 329.660156 782.066406 L 408.398438 697.722656 C 415.035156 690.628906 424.027344 686.523438 433.730469 686.191406 C 434.160156 686.183594 434.578125 686.171875 435 686.171875 C 444.246094 686.171875 453.035156 689.652344 460.59375 696.707031 C 473.757812 709.007812 475.6875 728.855469 466.023438 743.398438 Z M 1288.171875 636.082031 L 1218.875 636.082031 C 1213.429688 636.082031 1208.292969 638.617188 1204.972656 642.925781 L 1155.261719 707.417969 L 984.25 522.4375 C 981.765625 519.757812 978.511719 517.914062 974.945312 517.164062 C 824.398438 485.71875 808.820312 350.289062 808.234375 344.589844 C 807.5625 337.726562 802.953125 331.890625 796.433594 329.660156 C 789.917969 327.457031 782.6875 329.222656 777.972656 334.25 L 712.582031 403.742188 C 682.914062 435.265625 639.542969 451.0625 596.554688 446.015625 L 594.949219 445.820312 C 585.144531 444.671875 577.136719 438.492188 573.511719 429.3125 C 569.898438 420.121094 571.542969 410.144531 577.859375 402.6875 L 704.503906 254.984375 C 738.753906 215.019531 794.320312 201.988281 842.753906 222.570312 L 1000.777344 289.675781 C 1002.949219 290.589844 1005.289062 291.070312 1007.644531 291.070312 L 1288.171875 291.070312 C 1297.867188 291.070312 1305.730469 283.203125 1305.730469 273.507812 C 1305.730469 263.800781 1297.867188 255.949219 1288.171875 255.949219 L 1011.222656 255.949219 L 856.484375 190.234375 C 793.882812 163.652344 722.101562 180.480469 677.835938 232.109375 L 622.589844 296.554688 L 247.582031 296.554688 C 237.886719 296.554688 230.023438 304.417969 230.023438 314.117188 C 230.023438 323.820312 237.886719 331.6875 247.582031 331.6875 L 592.472656 331.6875 L 551.132812 379.90625 C 536.46875 397.210938 532.519531 421.078125 540.84375 442.1875 C 549.152344 463.292969 568.320312 478.058594 590.835938 480.707031 L 592.445312 480.894531 C 646.402344 487.246094 700.898438 467.394531 738.160156 427.8125 L 780.972656 382.3125 C 796.238281 432.371094 840.261719 522.464844 962.210938 550.335938 L 1131.039062 732.960938 C 1149.277344 752.390625 1148.625 783.351562 1129.539062 802.003906 L 1128.601562 802.917969 C 1119.023438 812.304688 1106.503906 817.246094 1092.929688 816.972656 C 1079.523438 816.640625 1067.121094 811.046875 1057.992188 801.214844 L 1016.746094 756.765625 C 1010.140625 749.664062 999.042969 749.234375 991.929688 755.839844 C 984.828125 762.4375 984.40625 773.558594 991.003906 780.660156 L 1046.84375 840.855469 C 1063.164062 858.4375 1062.414062 886.328125 1045.226562 902.980469 L 1044.292969 903.878906 C 1035.679688 912.210938 1024.53125 916.722656 1012.382812 916.390625 C 1000.414062 916.128906 989.296875 911.1875 981.074219 902.484375 L 911.019531 828.335938 C 904.402344 821.328125 893.375 820.957031 886.308594 827.535156 C 879.234375 834.09375 878.789062 845.125 885.296875 852.238281 L 932.425781 903.828125 C 940.074219 912.199219 943.972656 923.046875 943.398438 934.378906 C 942.820312 945.703125 937.84375 956.09375 929.394531 963.644531 L 928.488281 964.453125 C 920.0625 971.976562 909.136719 975.777344 897.941406 975.078125 C 886.679688 974.414062 876.351562 969.375 868.878906 960.917969 L 853.523438 943.523438 C 852.1875 941.738281 850.773438 940.011719 849.273438 938.335938 L 824.585938 910.738281 C 818.125 903.527344 807.066406 902.894531 799.835938 909.328125 C 792.605469 915.757812 791.933594 926.820312 798.335938 934.078125 L 826.085938 965.507812 C 831.335938 972.980469 833.851562 981.945312 833.214844 991.222656 C 832.476562 1002.097656 827.488281 1011.980469 818.308594 1019.777344 C 802.027344 1033.605469 777.804688 1032.25 763.171875 1016.707031 L 733.734375 985.425781 L 760.199219 957.066406 C 760.199219 957.066406 760.199219 957.066406 760.207031 957.066406 C 773.234375 943.113281 780.046875 924.917969 779.394531 905.828125 C 778.742188 886.746094 770.703125 869.058594 755.941406 855.28125 C 737.175781 837.75 711.382812 832.320312 688.242188 838.636719 C 686.363281 821.679688 678.539062 806.058594 665.21875 793.621094 C 646.402344 776.042969 620.542969 770.625 597.363281 777.007812 C 595.464844 760.480469 587.835938 744.417969 574.488281 731.945312 C 560.535156 718.917969 542.1875 712.113281 523.265625 712.757812 C 517.613281 712.953125 512.097656 713.808594 506.777344 715.261719 C 504.886719 698.316406 497.066406 682.714844 483.765625 670.289062 C 469.800781 657.25 451.511719 650.4375 432.53125 651.089844 C 414.304688 651.714844 397.359375 659.101562 384.515625 671.925781 L 247.582031 671.925781 C 237.886719 671.925781 230.023438 679.789062 230.023438 689.488281 C 230.023438 699.191406 237.886719 707.058594 247.582031 707.058594 L 351.640625 707.058594 L 303.996094 758.09375 C 290.96875 772.046875 284.148438 790.242188 284.800781 809.320312 C 285.464844 828.402344 293.503906 846.089844 308.253906 859.871094 C 322.011719 872.722656 339.519531 879.066406 357.011719 879.066406 C 363.441406 879.066406 369.871094 878.191406 376.097656 876.476562 C 378.007812 893.003906 385.628906 909.0625 398.984375 921.535156 C 412.324219 934 429.542969 940.773438 447.703125 940.773438 C 448.53125 940.773438 449.378906 940.765625 450.207031 940.734375 C 455.90625 940.539062 461.472656 939.671875 466.839844 938.191406 C 468.75 954.699219 476.371094 970.75 489.707031 983.195312 C 503.058594 995.65625 520.273438 1002.441406 538.4375 1002.441406 C 539.265625 1002.441406 540.101562 1002.421875 540.941406 1002.390625 C 546.640625 1002.195312 552.203125 1001.339844 557.570312 999.859375 C 559.480469 1016.367188 567.109375 1032.417969 580.441406 1044.871094 C 593.789062 1057.335938 611.003906 1064.105469 629.167969 1064.105469 C 629.996094 1064.105469 630.832031 1064.097656 631.671875 1064.070312 C 650.75 1063.40625 668.433594 1055.367188 681.460938 1041.410156 L 709.71875 1011.144531 L 737.59375 1040.777344 C 752.257812 1056.359375 772.035156 1064.339844 792.078125 1064.339844 C 809.578125 1064.339844 827.273438 1058.25 841.917969 1045.804688 C 855.148438 1034.570312 863.890625 1019.523438 867.085938 1002.753906 C 875.980469 1007.011719 885.714844 1009.535156 895.859375 1010.140625 C 916.515625 1011.328125 936.429688 1004.449219 951.875 990.648438 L 952.78125 989.851562 C 966.527344 977.570312 975.25 961.210938 977.800781 943.179688 C 988.167969 948.363281 999.65625 951.238281 1011.613281 951.511719 C 1032.960938 952.007812 1053.324219 944.027344 1068.679688 929.15625 L 1069.625 928.25 C 1090.464844 908.050781 1097.839844 878.699219 1091.402344 852.0625 C 1091.625 852.074219 1091.859375 852.082031 1092.074219 852.082031 C 1115.183594 852.71875 1136.738281 844.101562 1153.183594 828.023438 L 1154.121094 827.097656 C 1177.925781 803.816406 1184.9375 769.308594 1174.902344 739.460938 L 1227.507812 671.214844 L 1288.171875 671.214844 C 1297.867188 671.214844 1305.730469 663.351562 1305.730469 653.644531 C 1305.730469 643.949219 1297.867188 636.082031 1288.171875 636.082031 " fill-opacity="1" fill-rule="nonzero"/></g></svg>