<svg xmlns="http://www.w3.org/2000/svg" xmlns:xlink="http://www.w3.org/1999/xlink" width="2048" zoomAndPan="magnify" viewBox="0 0 1536 1228.499963" height="1638" preserveAspectRatio="xMidYMid meet" version="1.0"><defs><clipPath id="25c93d7ebc"><path d="M 0.3125 0 L 1535.6875 0 L 1535.6875 1228 L 0.3125 1228 Z M 0.3125 0 " clip-rule="nonzero"/></clipPath></defs><g clip-path="url(#25c93d7ebc)"><path fill="#ffffff" d="M 0.3125 0 L 1535.6875 0 L 1535.6875 1228 L 0.3125 1228 Z M 0.3125 0 " fill-opacity="1" fill-rule="nonzero"/><path fill="#ffffff" d="M 0.3125 0 L 1535.6875 0 L 1535.6875 1228 L 0.3125 1228 Z M 0.3125 0 " fill-opacity="1" fill-rule="nonzero"/></g><path fill="#231f20" d="M 1103.265625 651.046875 C 1103.246094 647.351562 1103.414062 643.660156 1103.761719 639.980469 C 1104.109375 636.296875 1104.636719 632.644531 1105.347656 629.015625 C 1106.058594 625.386719 1106.945312 621.800781 1108.011719 618.261719 C 1109.074219 614.71875 1110.3125 611.238281 1111.722656 607.820312 C 1113.132812 604.402344 1114.707031 601.0625 1116.449219 597.800781 C 1118.1875 594.539062 1120.085938 591.371094 1122.140625 588.296875 C 1124.195312 585.222656 1126.394531 582.257812 1128.742188 579.402344 C 1131.089844 576.546875 1133.574219 573.8125 1136.195312 571.203125 C 1137.929688 569.460938 1139.621094 567.679688 1141.273438 565.855469 C 1142.921875 564.03125 1144.523438 562.167969 1146.082031 560.265625 C 1147.640625 558.359375 1149.148438 556.421875 1150.613281 554.445312 C 1152.074219 552.46875 1153.488281 550.457031 1154.851562 548.410156 C 1156.21875 546.363281 1157.53125 544.285156 1158.792969 542.175781 C 1160.054688 540.066406 1161.265625 537.925781 1162.421875 535.753906 C 1163.578125 533.585938 1164.683594 531.386719 1165.734375 529.164062 C 1166.78125 526.941406 1167.777344 524.691406 1168.714844 522.417969 C 1169.65625 520.144531 1170.539062 517.851562 1171.367188 515.535156 C 1172.195312 513.21875 1172.964844 510.886719 1173.675781 508.53125 C 1174.390625 506.175781 1175.042969 503.808594 1175.640625 501.421875 C 1176.234375 499.035156 1176.773438 496.636719 1177.253906 494.226562 C 1177.730469 491.8125 1178.152344 489.390625 1178.511719 486.957031 C 1178.871094 484.523438 1179.171875 482.085938 1179.414062 479.636719 C 1179.652344 477.1875 1179.835938 474.738281 1179.953125 472.28125 C 1180.074219 469.824219 1180.136719 467.367188 1180.136719 464.90625 C 1180.136719 462.449219 1180.074219 459.992188 1179.953125 457.535156 C 1179.835938 455.078125 1179.652344 452.625 1179.414062 450.179688 C 1179.171875 447.730469 1178.871094 445.289062 1178.511719 442.859375 C 1178.152344 440.425781 1177.730469 438.003906 1177.253906 435.589844 C 1176.773438 433.179688 1176.234375 430.777344 1175.640625 428.394531 C 1175.042969 426.007812 1174.390625 423.636719 1173.675781 421.285156 C 1172.964844 418.929688 1172.195312 416.59375 1171.367188 414.277344 C 1170.539062 411.964844 1169.65625 409.667969 1168.714844 407.394531 C 1167.777344 405.125 1166.78125 402.875 1165.734375 400.652344 C 1164.683594 398.425781 1163.578125 396.230469 1162.421875 394.058594 C 1161.265625 391.890625 1160.054688 389.75 1158.792969 387.640625 C 1157.53125 385.53125 1156.21875 383.449219 1154.851562 381.40625 C 1153.488281 379.359375 1152.074219 377.347656 1150.613281 375.371094 C 1149.148438 373.394531 1147.640625 371.453125 1146.082031 369.550781 C 1144.523438 367.648438 1142.921875 365.785156 1141.273438 363.960938 C 1139.621094 362.136719 1137.929688 360.355469 1136.195312 358.613281 C 1133.566406 356.007812 1131.074219 353.28125 1128.71875 350.429688 C 1126.363281 347.578125 1124.15625 344.617188 1122.097656 341.542969 C 1120.039062 338.472656 1118.136719 335.304688 1116.390625 332.042969 C 1114.648438 328.78125 1113.070312 325.4375 1111.660156 322.019531 C 1110.25 318.597656 1109.015625 315.117188 1107.949219 311.574219 C 1106.886719 308.03125 1106.003906 304.445312 1105.300781 300.8125 C 1104.59375 297.183594 1104.070312 293.523438 1103.730469 289.839844 C 1103.390625 286.15625 1103.234375 282.464844 1103.265625 278.765625 C 1103.25 276.308594 1103.179688 273.855469 1103.046875 271.402344 C 1102.910156 268.949219 1102.71875 266.5 1102.464844 264.054688 C 1102.210938 261.613281 1101.898438 259.175781 1101.527344 256.746094 C 1101.15625 254.320312 1100.722656 251.902344 1100.230469 249.492188 C 1099.742188 247.085938 1099.191406 244.691406 1098.585938 242.3125 C 1097.976562 239.929688 1097.308594 237.566406 1096.585938 235.21875 C 1095.863281 232.871094 1095.082031 230.542969 1094.242188 228.230469 C 1093.40625 225.921875 1092.511719 223.632812 1091.5625 221.367188 C 1090.613281 219.101562 1089.609375 216.863281 1088.546875 214.644531 C 1087.488281 212.429688 1086.375 210.238281 1085.210938 208.078125 C 1084.042969 205.914062 1082.824219 203.78125 1081.550781 201.679688 C 1080.28125 199.578125 1078.960938 197.507812 1077.585938 195.46875 C 1076.214844 193.433594 1074.792969 191.429688 1073.320312 189.460938 C 1071.851562 187.492188 1070.332031 185.5625 1068.769531 183.667969 C 1067.203125 181.773438 1065.59375 179.921875 1063.9375 178.105469 C 1062.28125 176.292969 1060.582031 174.519531 1058.839844 172.785156 C 1057.097656 171.054688 1055.3125 169.367188 1053.488281 167.722656 C 1051.660156 166.078125 1049.796875 164.480469 1047.894531 162.925781 C 1045.988281 161.375 1044.050781 159.867188 1042.074219 158.410156 C 1040.09375 156.953125 1038.082031 155.546875 1036.035156 154.1875 C 1033.992188 152.828125 1031.914062 151.519531 1029.800781 150.261719 C 1027.691406 149.003906 1025.550781 147.796875 1023.382812 146.644531 C 1021.214844 145.492188 1019.015625 144.394531 1016.792969 143.347656 C 1014.570312 142.304688 1012.324219 141.3125 1010.050781 140.378906 C 1007.78125 139.445312 1005.488281 138.566406 1003.171875 137.742188 C 1000.859375 136.921875 998.523438 136.15625 996.171875 135.445312 C 993.820312 134.738281 991.453125 134.085938 989.066406 133.496094 C 986.683594 132.902344 984.285156 132.371094 981.875 131.894531 C 979.464844 131.417969 977.046875 131.003906 974.617188 130.648438 C 972.183594 130.292969 969.746094 129.996094 967.304688 129.757812 C 964.859375 129.519531 962.410156 129.34375 959.953125 129.226562 C 957.5 129.109375 955.046875 129.054688 952.589844 129.054688 C 948.890625 129.085938 945.203125 128.929688 941.519531 128.589844 C 937.835938 128.25 934.179688 127.726562 930.550781 127.019531 C 926.917969 126.316406 923.332031 125.433594 919.789062 124.367188 C 916.246094 123.304688 912.765625 122.070312 909.347656 120.660156 C 905.929688 119.246094 902.589844 117.671875 899.328125 115.925781 C 896.066406 114.183594 892.898438 112.28125 889.828125 110.21875 C 886.757812 108.160156 883.792969 105.953125 880.941406 103.597656 C 878.09375 101.238281 875.363281 98.75 872.761719 96.121094 C 871.019531 94.382812 869.238281 92.691406 867.414062 91.039062 C 865.589844 89.390625 863.730469 87.789062 861.828125 86.230469 C 859.925781 84.671875 857.984375 83.160156 856.007812 81.699219 C 854.03125 80.234375 852.019531 78.820312 849.976562 77.457031 C 847.929688 76.089844 845.851562 74.777344 843.742188 73.515625 C 841.632812 72.253906 839.492188 71.042969 837.324219 69.886719 C 835.152344 68.726562 832.957031 67.625 830.734375 66.574219 C 828.511719 65.523438 826.261719 64.527344 823.988281 63.589844 C 821.71875 62.648438 819.425781 61.765625 817.109375 60.9375 C 814.792969 60.113281 812.457031 59.339844 810.105469 58.628906 C 807.753906 57.914062 805.382812 57.261719 802.996094 56.664062 C 800.613281 56.066406 798.214844 55.53125 795.800781 55.050781 C 793.390625 54.570312 790.96875 54.152344 788.535156 53.792969 C 786.105469 53.433594 783.664062 53.132812 781.21875 52.890625 C 778.769531 52.648438 776.320312 52.46875 773.863281 52.347656 C 771.40625 52.226562 768.949219 52.167969 766.492188 52.167969 C 764.03125 52.167969 761.574219 52.226562 759.121094 52.347656 C 756.664062 52.46875 754.210938 52.648438 751.765625 52.890625 C 749.320312 53.132812 746.878906 53.433594 744.445312 53.792969 C 742.015625 54.152344 739.59375 54.570312 737.179688 55.050781 C 734.769531 55.53125 732.371094 56.066406 729.984375 56.664062 C 727.601562 57.261719 725.230469 57.914062 722.878906 58.628906 C 720.523438 59.339844 718.191406 60.113281 715.875 60.9375 C 713.558594 61.765625 711.265625 62.648438 708.992188 63.589844 C 706.722656 64.527344 704.472656 65.523438 702.25 66.574219 C 700.027344 67.625 697.828125 68.726562 695.660156 69.886719 C 693.492188 71.042969 691.351562 72.253906 689.242188 73.515625 C 687.132812 74.777344 685.054688 76.089844 683.007812 77.457031 C 680.960938 78.820312 678.953125 80.234375 676.976562 81.699219 C 675 83.160156 673.058594 84.671875 671.15625 86.230469 C 669.253906 87.789062 667.390625 89.390625 665.566406 91.039062 C 663.742188 92.691406 661.960938 94.382812 660.222656 96.121094 C 657.613281 98.742188 654.886719 101.230469 652.03125 103.582031 C 649.179688 105.9375 646.214844 108.140625 643.144531 110.199219 C 640.070312 112.253906 636.902344 114.15625 633.640625 115.898438 C 630.378906 117.640625 627.039062 119.214844 623.621094 120.628906 C 620.203125 122.039062 616.726562 123.273438 613.183594 124.339844 C 609.640625 125.402344 606.058594 126.289062 602.429688 126.996094 C 598.800781 127.703125 595.144531 128.230469 591.460938 128.574219 C 587.78125 128.917969 584.089844 129.078125 580.394531 129.054688 C 577.933594 129.058594 575.476562 129.125 573.023438 129.246094 C 570.566406 129.371094 568.117188 129.554688 565.671875 129.796875 C 563.222656 130.042969 560.785156 130.34375 558.351562 130.710938 C 555.921875 131.074219 553.5 131.496094 551.089844 131.976562 C 548.679688 132.460938 546.28125 133 543.898438 133.601562 C 541.511719 134.199219 539.144531 134.859375 536.792969 135.574219 C 534.441406 136.289062 532.109375 137.0625 529.792969 137.890625 C 527.480469 138.722656 525.1875 139.609375 522.917969 140.550781 C 520.644531 141.492188 518.398438 142.492188 516.175781 143.542969 C 513.957031 144.597656 511.761719 145.703125 509.59375 146.863281 C 507.425781 148.023438 505.289062 149.238281 503.179688 150.5 C 501.070312 151.765625 498.996094 153.082031 496.953125 154.449219 C 494.910156 155.816406 492.898438 157.230469 490.925781 158.699219 C 488.949219 160.164062 487.011719 161.675781 485.113281 163.234375 C 483.214844 164.796875 481.351562 166.402344 479.53125 168.054688 C 477.710938 169.707031 475.929688 171.402344 474.191406 173.140625 C 472.453125 174.878906 470.757812 176.660156 469.105469 178.480469 C 467.457031 180.300781 465.851562 182.164062 464.289062 184.0625 C 462.730469 185.964844 461.21875 187.902344 459.753906 189.878906 C 458.289062 191.851562 456.871094 193.863281 455.503906 195.90625 C 454.136719 197.949219 452.824219 200.027344 451.558594 202.132812 C 450.292969 204.242188 449.082031 206.382812 447.921875 208.550781 C 446.761719 210.71875 445.65625 212.914062 444.601562 215.136719 C 443.550781 217.359375 442.550781 219.605469 441.609375 221.875 C 440.667969 224.148438 439.78125 226.441406 438.953125 228.753906 C 438.121094 231.070312 437.347656 233.402344 436.632812 235.753906 C 435.917969 238.109375 435.261719 240.476562 434.660156 242.863281 C 434.0625 245.246094 433.519531 247.644531 433.039062 250.054688 C 432.554688 252.46875 432.132812 254.890625 431.769531 257.320312 C 431.40625 259.753906 431.101562 262.191406 430.859375 264.640625 C 430.617188 267.085938 430.433594 269.539062 430.308594 271.992188 C 430.183594 274.449219 430.121094 276.90625 430.117188 279.367188 C 430.136719 283.0625 429.96875 286.753906 429.621094 290.433594 C 429.273438 294.117188 428.746094 297.769531 428.035156 301.398438 C 427.324219 305.027344 426.4375 308.613281 425.371094 312.152344 C 424.304688 315.695312 423.070312 319.171875 421.660156 322.59375 C 420.25 326.011719 418.675781 329.351562 416.933594 332.613281 C 415.195312 335.875 413.296875 339.042969 411.242188 342.117188 C 409.1875 345.191406 406.988281 348.15625 404.640625 351.011719 C 402.289062 353.867188 399.808594 356.601562 397.1875 359.210938 C 395.464844 360.953125 393.785156 362.738281 392.144531 364.5625 C 390.507812 366.390625 388.917969 368.253906 387.371094 370.15625 C 385.824219 372.0625 384.328125 374 382.875 375.976562 C 381.425781 377.953125 380.023438 379.964844 378.671875 382.011719 C 377.320312 384.058594 376.019531 386.132812 374.765625 388.242188 C 373.515625 390.351562 372.320312 392.492188 371.171875 394.660156 C 370.027344 396.828125 368.933594 399.023438 367.898438 401.246094 C 366.859375 403.464844 365.875 405.710938 364.949219 407.980469 C 364.019531 410.25 363.148438 412.542969 362.332031 414.855469 C 361.515625 417.167969 360.757812 419.5 360.054688 421.847656 C 359.355469 424.199219 358.710938 426.5625 358.125 428.945312 C 357.539062 431.324219 357.011719 433.71875 356.542969 436.128906 C 356.074219 438.535156 355.664062 440.953125 355.316406 443.378906 C 354.964844 445.804688 354.675781 448.242188 354.445312 450.683594 C 354.214844 453.125 354.042969 455.570312 353.933594 458.019531 C 353.820312 460.46875 353.769531 462.917969 353.78125 465.371094 C 353.789062 467.824219 353.859375 470.273438 353.988281 472.722656 C 354.117188 475.171875 354.304688 477.617188 354.554688 480.054688 C 354.804688 482.496094 355.113281 484.929688 355.480469 487.351562 C 355.847656 489.777344 356.277344 492.191406 356.761719 494.59375 C 357.25 497 357.796875 499.386719 358.398438 501.765625 C 359.003906 504.140625 359.664062 506.503906 360.382812 508.847656 C 361.101562 511.191406 361.878906 513.515625 362.710938 515.824219 C 363.546875 518.128906 364.433594 520.414062 365.378906 522.675781 C 366.324219 524.941406 367.324219 527.175781 368.378906 529.390625 C 369.433594 531.605469 370.542969 533.792969 371.703125 535.949219 C 372.867188 538.109375 374.082031 540.238281 375.347656 542.339844 C 376.613281 544.441406 377.929688 546.507812 379.296875 548.542969 C 380.667969 550.578125 382.082031 552.578125 383.546875 554.542969 C 385.015625 556.511719 386.527344 558.4375 388.085938 560.332031 C 389.648438 562.222656 391.253906 564.074219 392.902344 565.886719 C 394.554688 567.699219 396.25 569.472656 397.988281 571.203125 C 400.597656 573.820312 403.074219 576.558594 405.414062 579.417969 C 407.753906 582.277344 409.949219 585.246094 411.996094 588.320312 C 414.046875 591.398438 415.9375 594.566406 417.675781 597.828125 C 419.414062 601.089844 420.988281 604.429688 422.394531 607.847656 C 423.804688 611.265625 425.042969 614.742188 426.109375 618.28125 C 427.179688 621.820312 428.070312 625.402344 428.785156 629.027344 C 429.5 632.652344 430.035156 636.304688 430.390625 639.984375 C 430.746094 643.664062 430.921875 647.351562 430.917969 651.046875 C 430.914062 653.21875 430.957031 655.390625 431.050781 657.558594 C 431.140625 659.726562 431.277344 661.894531 431.464844 664.054688 C 431.648438 666.21875 431.878906 668.378906 432.160156 670.53125 C 432.4375 672.683594 432.761719 674.828125 433.136719 676.96875 C 433.507812 679.109375 433.925781 681.238281 434.386719 683.359375 C 434.851562 685.480469 435.363281 687.589844 435.917969 689.6875 C 436.472656 691.785156 437.074219 693.871094 437.71875 695.945312 C 438.363281 698.019531 439.054688 700.078125 439.789062 702.117188 C 440.523438 704.160156 441.300781 706.1875 442.125 708.195312 C 442.949219 710.207031 443.8125 712.195312 444.722656 714.167969 C 445.628906 716.140625 446.582031 718.089844 447.574219 720.019531 C 448.566406 721.953125 449.601562 723.859375 450.679688 725.746094 C 451.753906 727.628906 452.871094 729.492188 454.027344 731.328125 C 455.183594 733.167969 456.378906 734.976562 457.613281 736.761719 C 458.851562 738.546875 460.125 740.304688 461.433594 742.035156 C 462.746094 743.765625 464.09375 745.46875 465.476562 747.136719 C 466.863281 748.808594 468.285156 750.453125 469.738281 752.0625 C 471.195312 753.671875 472.6875 755.25 474.210938 756.792969 C 475.734375 758.339844 477.292969 759.851562 478.882812 761.332031 C 480.472656 762.808594 482.09375 764.25 483.746094 765.660156 C 485.398438 767.066406 487.078125 768.4375 488.789062 769.773438 C 490.503906 771.109375 492.242188 772.40625 494.011719 773.664062 C 495.777344 774.925781 497.574219 776.144531 499.394531 777.328125 C 501.214844 778.507812 503.058594 779.648438 504.929688 780.753906 C 506.800781 781.855469 508.695312 782.914062 510.609375 783.933594 C 512.527344 784.953125 514.464844 785.933594 516.421875 786.867188 C 518.378906 787.804688 520.359375 788.695312 522.355469 789.546875 C 524.351562 790.394531 526.367188 791.203125 528.398438 791.964844 C 530.433594 792.726562 532.480469 793.445312 534.542969 794.121094 C 536.605469 794.792969 538.683594 795.421875 540.773438 796.007812 C 542.863281 796.589844 544.96875 797.128906 547.082031 797.621094 C 549.195312 798.113281 551.320312 798.5625 553.453125 798.960938 L 401.980469 1164.457031 C 401.71875 1165.160156 401.5 1165.882812 401.320312 1166.613281 C 401.144531 1167.34375 401.015625 1168.085938 400.925781 1168.832031 C 400.839844 1169.582031 400.796875 1170.332031 400.796875 1171.085938 C 400.796875 1171.839844 400.84375 1172.589844 400.933594 1173.335938 C 401.027344 1174.082031 401.160156 1174.824219 401.339844 1175.554688 C 401.519531 1176.285156 401.742188 1177.003906 402.003906 1177.710938 C 402.269531 1178.414062 402.574219 1179.101562 402.921875 1179.769531 C 403.265625 1180.4375 403.652344 1181.085938 404.074219 1181.707031 C 404.5 1182.332031 404.957031 1182.925781 405.453125 1183.496094 C 405.945312 1184.0625 406.472656 1184.597656 407.03125 1185.105469 C 407.589844 1185.609375 408.175781 1186.082031 408.789062 1186.515625 C 409.402344 1186.953125 410.039062 1187.351562 410.703125 1187.710938 C 411.363281 1188.070312 412.042969 1188.386719 412.742188 1188.667969 C 413.441406 1188.945312 414.15625 1189.179688 414.882812 1189.375 C 415.613281 1189.566406 416.347656 1189.71875 417.09375 1189.824219 C 417.839844 1189.929688 418.589844 1189.988281 419.339844 1190.007812 L 422.933594 1190.007812 L 766.992188 1123.136719 L 1111.046875 1190.007812 L 1114.640625 1190.007812 C 1116.03125 1189.964844 1117.402344 1189.777344 1118.753906 1189.449219 C 1120.105469 1189.121094 1121.410156 1188.65625 1122.664062 1188.054688 C 1123.917969 1187.453125 1125.097656 1186.726562 1126.199219 1185.878906 C 1127.300781 1185.03125 1128.304688 1184.078125 1129.207031 1183.019531 C 1129.789062 1182.347656 1130.320312 1181.636719 1130.800781 1180.886719 C 1131.277344 1180.136719 1131.703125 1179.359375 1132.070312 1178.550781 C 1132.4375 1177.738281 1132.746094 1176.90625 1132.992188 1176.054688 C 1133.242188 1175.199219 1133.425781 1174.332031 1133.550781 1173.453125 C 1133.671875 1172.570312 1133.734375 1171.6875 1133.730469 1170.796875 C 1133.726562 1169.90625 1133.65625 1169.023438 1133.527344 1168.144531 C 1133.394531 1167.265625 1133.203125 1166.398438 1132.945312 1165.546875 C 1132.691406 1164.695312 1132.375 1163.863281 1132.003906 1163.058594 L 980.128906 798.960938 C 982.269531 798.566406 984.398438 798.125 986.519531 797.636719 C 988.636719 797.148438 990.746094 796.617188 992.84375 796.039062 C 994.941406 795.457031 997.023438 794.835938 999.09375 794.164062 C 1001.164062 793.496094 1003.214844 792.78125 1005.253906 792.023438 C 1007.292969 791.265625 1009.316406 790.460938 1011.320312 789.617188 C 1013.324219 788.769531 1015.308594 787.878906 1017.273438 786.949219 C 1019.238281 786.015625 1021.183594 785.039062 1023.105469 784.023438 C 1025.027344 783.007812 1026.929688 781.949219 1028.804688 780.851562 C 1030.683594 779.75 1032.535156 778.613281 1034.363281 777.433594 C 1036.191406 776.253906 1037.992188 775.035156 1039.765625 773.777344 C 1041.542969 772.519531 1043.289062 771.222656 1045.007812 769.890625 C 1046.726562 768.558594 1048.414062 767.1875 1050.074219 765.78125 C 1051.734375 764.375 1053.363281 762.933594 1054.960938 761.453125 C 1056.554688 759.976562 1058.121094 758.464844 1059.652344 756.921875 C 1061.183594 755.375 1062.679688 753.796875 1064.144531 752.1875 C 1065.605469 750.578125 1067.035156 748.9375 1068.425781 747.265625 C 1069.816406 745.59375 1071.171875 743.890625 1072.492188 742.160156 C 1073.808594 740.429688 1075.089844 738.671875 1076.332031 736.886719 C 1077.574219 735.101562 1078.773438 733.289062 1079.9375 731.449219 C 1081.101562 729.609375 1082.222656 727.75 1083.308594 725.859375 C 1084.390625 723.972656 1085.429688 722.0625 1086.429688 720.132812 C 1087.429688 718.199219 1088.386719 716.246094 1089.300781 714.273438 C 1090.21875 712.300781 1091.089844 710.308594 1091.917969 708.296875 C 1092.746094 706.285156 1093.53125 704.253906 1094.273438 702.210938 C 1095.011719 700.164062 1095.707031 698.101562 1096.359375 696.027344 C 1097.011719 693.953125 1097.617188 691.863281 1098.179688 689.761719 C 1098.738281 687.65625 1099.253906 685.542969 1099.722656 683.421875 C 1100.191406 681.296875 1100.613281 679.164062 1100.992188 677.019531 C 1101.367188 674.875 1101.699219 672.726562 1101.980469 670.570312 C 1102.265625 668.414062 1102.5 666.25 1102.691406 664.082031 C 1102.882812 661.914062 1103.023438 659.746094 1103.121094 657.570312 C 1103.214844 655.398438 1103.261719 653.222656 1103.265625 651.046875 Z M 952.589844 764.03125 C 947.664062 764.015625 942.75 764.242188 937.847656 764.710938 C 932.945312 765.179688 928.074219 765.890625 923.242188 766.84375 C 918.410156 767.792969 913.636719 768.980469 908.917969 770.402344 C 904.203125 771.824219 899.570312 773.472656 895.015625 775.355469 C 890.464844 777.234375 886.015625 779.332031 881.667969 781.652344 C 877.324219 783.972656 873.101562 786.5 869.003906 789.234375 C 864.910156 791.96875 860.957031 794.902344 857.152344 798.027344 C 853.34375 801.152344 849.699219 804.457031 846.21875 807.945312 C 844.914062 809.253906 843.578125 810.53125 842.210938 811.773438 C 840.839844 813.015625 839.445312 814.222656 838.015625 815.398438 C 836.589844 816.574219 835.132812 817.710938 833.648438 818.8125 C 832.167969 819.917969 830.65625 820.980469 829.121094 822.011719 C 827.585938 823.039062 826.027344 824.027344 824.441406 824.980469 C 822.855469 825.933594 821.25 826.84375 819.621094 827.71875 C 817.992188 828.589844 816.339844 829.421875 814.671875 830.214844 C 813 831.003906 811.3125 831.753906 809.605469 832.464844 C 807.898438 833.171875 806.175781 833.839844 804.433594 834.460938 C 802.695312 835.085938 800.941406 835.667969 799.171875 836.203125 C 797.402344 836.742188 795.625 837.234375 793.832031 837.683594 C 792.039062 838.132812 790.234375 838.539062 788.421875 838.902344 C 786.609375 839.261719 784.789062 839.578125 782.960938 839.851562 C 781.132812 840.121094 779.300781 840.347656 777.460938 840.53125 C 775.621094 840.710938 773.777344 840.847656 771.933594 840.9375 C 770.085938 841.027344 768.238281 841.074219 766.390625 841.074219 C 764.542969 841.074219 762.695312 841.027344 760.851562 840.9375 C 759.003906 840.847656 757.160156 840.710938 755.324219 840.53125 C 753.484375 840.347656 751.648438 840.121094 749.820312 839.851562 C 747.992188 839.578125 746.171875 839.261719 744.359375 838.902344 C 742.546875 838.539062 740.746094 838.132812 738.953125 837.683594 C 737.160156 837.234375 735.378906 836.742188 733.609375 836.203125 C 731.84375 835.667969 730.089844 835.085938 728.347656 834.460938 C 726.609375 833.839844 724.886719 833.171875 723.179688 832.464844 C 721.472656 831.753906 719.78125 831.003906 718.113281 830.214844 C 716.441406 829.421875 714.792969 828.589844 713.164062 827.71875 C 711.535156 826.84375 709.925781 825.933594 708.34375 824.980469 C 706.757812 824.027344 705.199219 823.039062 703.664062 822.011719 C 702.125 820.980469 700.617188 819.917969 699.132812 818.8125 C 697.648438 817.710938 696.195312 816.574219 694.765625 815.398438 C 693.339844 814.222656 691.941406 813.015625 690.574219 811.773438 C 689.207031 810.53125 687.871094 809.253906 686.5625 807.945312 C 683.09375 804.457031 679.460938 801.152344 675.664062 798.023438 C 671.867188 794.898438 667.925781 791.964844 663.839844 789.230469 C 659.75 786.492188 655.539062 783.964844 651.203125 781.644531 C 646.863281 779.324219 642.421875 777.226562 637.878906 775.347656 C 633.332031 773.464844 628.707031 771.816406 624 770.394531 C 619.289062 768.972656 614.523438 767.785156 609.695312 766.835938 C 604.871094 765.886719 600.011719 765.175781 595.113281 764.707031 C 590.21875 764.238281 585.3125 764.011719 580.394531 764.03125 C 578.554688 764.011719 576.71875 763.953125 574.882812 763.847656 C 573.046875 763.742188 571.214844 763.589844 569.390625 763.394531 C 567.5625 763.199219 565.738281 762.960938 563.921875 762.675781 C 562.105469 762.390625 560.296875 762.0625 558.5 761.6875 C 556.699219 761.316406 554.910156 760.898438 553.128906 760.441406 C 551.347656 759.980469 549.582031 759.476562 547.824219 758.929688 C 546.070312 758.382812 544.328125 757.796875 542.605469 757.164062 C 540.878906 756.53125 539.167969 755.859375 537.472656 755.144531 C 535.78125 754.429688 534.105469 753.675781 532.449219 752.878906 C 530.792969 752.082031 529.15625 751.242188 527.539062 750.367188 C 525.921875 749.492188 524.328125 748.574219 522.757812 747.621094 C 521.1875 746.667969 519.640625 745.675781 518.117188 744.644531 C 516.59375 743.613281 515.097656 742.546875 513.628906 741.445312 C 512.15625 740.339844 510.714844 739.203125 509.296875 738.03125 C 507.882812 736.855469 506.496094 735.648438 505.140625 734.40625 C 503.785156 733.167969 502.460938 731.894531 501.164062 730.585938 C 499.871094 729.28125 498.609375 727.945312 497.382812 726.578125 C 496.152344 725.210938 494.957031 723.8125 493.796875 722.386719 C 492.636719 720.960938 491.511719 719.507812 490.421875 718.027344 C 489.332031 716.546875 488.277344 715.039062 487.261719 713.507812 C 486.246094 711.976562 485.269531 710.417969 484.328125 708.839844 C 483.386719 707.257812 482.488281 705.65625 481.625 704.035156 C 480.761719 702.410156 479.941406 700.765625 479.160156 699.101562 C 478.378906 697.4375 477.636719 695.753906 476.9375 694.054688 C 476.238281 692.355469 475.578125 690.636719 474.964844 688.90625 C 474.347656 687.171875 473.773438 685.425781 473.242188 683.667969 C 472.714844 681.90625 472.226562 680.132812 471.78125 678.351562 C 471.335938 676.566406 470.9375 674.773438 470.582031 672.96875 C 470.222656 671.164062 469.910156 669.351562 469.644531 667.535156 C 469.375 665.714844 469.152344 663.890625 468.972656 662.058594 C 468.792969 660.230469 468.660156 658.398438 468.570312 656.5625 C 468.480469 654.722656 468.433594 652.886719 468.433594 651.046875 C 468.453125 646.128906 468.226562 641.21875 467.757812 636.324219 C 467.289062 631.425781 466.578125 626.5625 465.628906 621.738281 C 464.679688 616.910156 463.496094 612.140625 462.074219 607.433594 C 460.652344 602.722656 459 598.097656 457.121094 593.550781 C 455.242188 589.003906 453.140625 584.5625 450.824219 580.222656 C 448.503906 575.886719 445.976562 571.671875 443.242188 567.585938 C 440.503906 563.496094 437.574219 559.554688 434.449219 555.753906 C 431.320312 551.957031 428.015625 548.324219 424.53125 544.851562 C 423.222656 543.546875 421.945312 542.210938 420.703125 540.84375 C 419.460938 539.472656 418.253906 538.074219 417.078125 536.648438 C 415.902344 535.21875 414.765625 533.765625 413.664062 532.28125 C 412.5625 530.796875 411.496094 529.289062 410.46875 527.75 C 409.4375 526.214844 408.449219 524.65625 407.496094 523.070312 C 406.546875 521.484375 405.632812 519.878906 404.761719 518.246094 C 403.890625 516.617188 403.058594 514.96875 402.265625 513.296875 C 401.476562 511.625 400.726562 509.9375 400.015625 508.230469 C 399.308594 506.523438 398.644531 504.800781 398.019531 503.058594 C 397.394531 501.320312 396.816406 499.5625 396.277344 497.796875 C 395.742188 496.027344 395.246094 494.246094 394.796875 492.453125 C 394.347656 490.660156 393.941406 488.855469 393.582031 487.042969 C 393.21875 485.230469 392.902344 483.410156 392.632812 481.582031 C 392.359375 479.753906 392.132812 477.917969 391.953125 476.078125 C 391.769531 474.238281 391.632812 472.394531 391.542969 470.550781 C 391.453125 468.703125 391.40625 466.855469 391.40625 465.007812 C 391.40625 463.160156 391.453125 461.3125 391.542969 459.464844 C 391.632812 457.617188 391.769531 455.773438 391.953125 453.9375 C 392.132812 452.097656 392.359375 450.261719 392.632812 448.433594 C 392.902344 446.605469 393.21875 444.785156 393.582031 442.972656 C 393.941406 441.15625 394.347656 439.355469 394.796875 437.5625 C 395.246094 435.769531 395.742188 433.988281 396.277344 432.21875 C 396.816406 430.449219 397.394531 428.695312 398.019531 426.957031 C 398.644531 425.214844 399.308594 423.492188 400.015625 421.785156 C 400.726562 420.078125 401.476562 418.386719 402.265625 416.71875 C 403.058594 415.046875 403.890625 413.394531 404.761719 411.765625 C 405.632812 410.136719 406.546875 408.53125 407.496094 406.945312 C 408.449219 405.359375 409.4375 403.800781 410.46875 402.261719 C 411.496094 400.726562 412.5625 399.21875 413.664062 397.734375 C 414.765625 396.25 415.902344 394.792969 417.078125 393.367188 C 418.253906 391.9375 419.460938 390.539062 420.703125 389.171875 C 421.945312 387.804688 423.222656 386.46875 424.53125 385.160156 C 428.019531 381.683594 431.328125 378.042969 434.457031 374.234375 C 437.585938 370.429688 440.519531 366.480469 443.257812 362.382812 C 445.996094 358.285156 448.523438 354.066406 450.84375 349.71875 C 453.164062 345.371094 455.265625 340.921875 457.144531 336.367188 C 459.023438 331.8125 460.675781 327.175781 462.09375 322.457031 C 463.515625 317.738281 464.699219 312.960938 465.648438 308.128906 C 466.59375 303.292969 467.300781 298.421875 467.769531 293.515625 C 468.234375 288.609375 468.457031 283.695312 468.433594 278.765625 C 468.4375 276.921875 468.488281 275.082031 468.582031 273.238281 C 468.675781 271.398438 468.8125 269.558594 468.996094 267.726562 C 469.179688 265.890625 469.410156 264.0625 469.683594 262.238281 C 469.957031 260.414062 470.273438 258.601562 470.636719 256.792969 C 471 254.984375 471.40625 253.1875 471.855469 251.398438 C 472.304688 249.613281 472.800781 247.835938 473.335938 246.074219 C 473.875 244.308594 474.457031 242.558594 475.078125 240.824219 C 475.703125 239.089844 476.367188 237.371094 477.074219 235.667969 C 477.78125 233.964844 478.53125 232.28125 479.324219 230.617188 C 480.113281 228.949219 480.941406 227.304688 481.8125 225.679688 C 482.683594 224.054688 483.59375 222.453125 484.542969 220.871094 C 485.492188 219.292969 486.480469 217.738281 487.507812 216.203125 C 488.53125 214.671875 489.597656 213.167969 490.695312 211.6875 C 491.792969 210.207031 492.929688 208.753906 494.101562 207.332031 C 495.273438 205.90625 496.476562 204.511719 497.714844 203.148438 C 498.953125 201.785156 500.226562 200.449219 501.53125 199.148438 C 502.835938 197.84375 504.171875 196.574219 505.539062 195.339844 C 506.90625 194.101562 508.300781 192.898438 509.726562 191.730469 C 511.152344 190.5625 512.605469 189.429688 514.085938 188.332031 C 515.570312 187.234375 517.078125 186.171875 518.609375 185.148438 C 520.144531 184.128906 521.699219 183.140625 523.28125 182.195312 C 524.863281 181.25 526.46875 180.339844 528.09375 179.472656 C 529.71875 178.605469 531.367188 177.777344 533.03125 176.988281 C 534.699219 176.203125 536.382812 175.457031 538.085938 174.75 C 539.789062 174.046875 541.511719 173.382812 543.246094 172.761719 C 544.980469 172.140625 546.730469 171.566406 548.496094 171.03125 C 550.261719 170.496094 552.035156 170.003906 553.824219 169.558594 C 555.613281 169.109375 557.410156 168.707031 559.21875 168.347656 C 561.027344 167.988281 562.84375 167.671875 564.664062 167.402344 C 566.488281 167.132812 568.316406 166.90625 570.152344 166.726562 C 571.988281 166.546875 573.824219 166.410156 575.664062 166.320312 C 577.507812 166.230469 579.347656 166.183594 581.191406 166.183594 C 586.109375 166.203125 591.015625 165.976562 595.914062 165.507812 C 600.808594 165.039062 605.667969 164.328125 610.496094 163.378906 C 615.320312 162.429688 620.089844 161.242188 624.796875 159.820312 C 629.503906 158.398438 634.132812 156.75 638.675781 154.867188 C 643.222656 152.988281 647.664062 150.886719 652 148.570312 C 656.335938 146.25 660.550781 143.722656 664.636719 140.984375 C 668.722656 138.246094 672.664062 135.316406 676.460938 132.191406 C 680.257812 129.0625 683.894531 125.757812 687.363281 122.269531 C 688.667969 120.960938 690.003906 119.683594 691.371094 118.441406 C 692.742188 117.199219 694.136719 115.988281 695.566406 114.816406 C 696.992188 113.640625 698.449219 112.503906 699.933594 111.402344 C 701.414062 110.296875 702.925781 109.230469 704.460938 108.203125 C 705.996094 107.175781 707.554688 106.183594 709.140625 105.234375 C 710.726562 104.28125 712.332031 103.371094 713.960938 102.496094 C 715.589844 101.625 717.242188 100.792969 718.910156 100 C 720.582031 99.210938 722.269531 98.460938 723.976562 97.75 C 725.683594 97.042969 727.40625 96.375 729.148438 95.753906 C 730.886719 95.128906 732.640625 94.546875 734.410156 94.011719 C 736.179688 93.472656 737.957031 92.980469 739.75 92.53125 C 741.542969 92.078125 743.347656 91.675781 745.160156 91.3125 C 746.972656 90.953125 748.792969 90.636719 750.621094 90.363281 C 752.449219 90.09375 754.28125 89.867188 756.121094 89.683594 C 757.960938 89.503906 759.804688 89.367188 761.648438 89.277344 C 763.496094 89.183594 765.34375 89.140625 767.191406 89.140625 C 769.039062 89.140625 770.886719 89.183594 772.730469 89.277344 C 774.578125 89.367188 776.421875 89.503906 778.257812 89.683594 C 780.097656 89.867188 781.933594 90.09375 783.761719 90.363281 C 785.589844 90.636719 787.410156 90.953125 789.222656 91.3125 C 791.035156 91.675781 792.835938 92.078125 794.628906 92.53125 C 796.421875 92.980469 798.203125 93.472656 799.972656 94.011719 C 801.738281 94.546875 803.492188 95.128906 805.234375 95.753906 C 806.972656 96.375 808.695312 97.042969 810.402344 97.75 C 812.109375 98.460938 813.800781 99.210938 815.46875 100 C 817.140625 100.792969 818.789062 101.625 820.417969 102.496094 C 822.046875 103.371094 823.65625 104.28125 825.238281 105.234375 C 826.824219 106.183594 828.382812 107.175781 829.917969 108.203125 C 831.457031 109.230469 832.964844 110.296875 834.449219 111.402344 C 835.933594 112.503906 837.386719 113.640625 838.816406 114.816406 C 840.242188 115.988281 841.640625 117.199219 843.007812 118.441406 C 844.375 119.683594 845.710938 120.960938 847.019531 122.269531 C 850.460938 125.757812 854.070312 129.070312 857.839844 132.207031 C 861.609375 135.339844 865.523438 138.28125 869.585938 141.03125 C 873.644531 143.78125 877.828125 146.324219 882.136719 148.664062 C 886.445312 151.003906 890.859375 153.125 895.378906 155.03125 C 899.894531 156.933594 904.496094 158.613281 909.175781 160.066406 C 913.859375 161.519531 918.601562 162.738281 923.40625 163.726562 C 928.207031 164.710938 933.046875 165.460938 937.921875 165.972656 C 942.796875 166.480469 947.6875 166.753906 952.589844 166.785156 C 954.429688 166.785156 956.269531 166.835938 958.109375 166.929688 C 959.949219 167.023438 961.785156 167.160156 963.617188 167.34375 C 965.449219 167.527344 967.273438 167.753906 969.09375 168.027344 C 970.917969 168.300781 972.730469 168.617188 974.535156 168.980469 C 976.339844 169.339844 978.136719 169.746094 979.921875 170.195312 C 981.707031 170.644531 983.480469 171.140625 985.242188 171.675781 C 987.003906 172.210938 988.75 172.792969 990.484375 173.414062 C 992.214844 174.035156 993.933594 174.699219 995.632812 175.40625 C 997.332031 176.113281 999.015625 176.859375 1000.679688 177.648438 C 1002.34375 178.4375 1003.984375 179.265625 1005.609375 180.136719 C 1007.234375 181.003906 1008.832031 181.914062 1010.414062 182.859375 C 1011.992188 183.808594 1013.546875 184.792969 1015.074219 185.816406 C 1016.605469 186.84375 1018.109375 187.902344 1019.589844 189 C 1021.066406 190.097656 1022.519531 191.230469 1023.941406 192.398438 C 1025.363281 193.566406 1026.757812 194.769531 1028.121094 196.007812 C 1029.488281 197.246094 1030.820312 198.515625 1032.121094 199.816406 C 1033.421875 201.117188 1034.691406 202.453125 1035.929688 203.816406 C 1037.164062 205.179688 1038.367188 206.574219 1039.535156 207.996094 C 1040.703125 209.421875 1041.835938 210.871094 1042.933594 212.351562 C 1044.03125 213.828125 1045.09375 215.335938 1046.117188 216.867188 C 1047.140625 218.394531 1048.125 219.953125 1049.074219 221.53125 C 1050.019531 223.109375 1050.929688 224.710938 1051.796875 226.335938 C 1052.667969 227.957031 1053.496094 229.601562 1054.285156 231.265625 C 1055.074219 232.929688 1055.820312 234.613281 1056.527344 236.3125 C 1057.230469 238.015625 1057.894531 239.730469 1058.519531 241.464844 C 1059.140625 243.199219 1059.71875 244.945312 1060.253906 246.707031 C 1060.792969 248.46875 1061.285156 250.242188 1061.734375 252.027344 C 1062.183594 253.8125 1062.589844 255.609375 1062.953125 257.414062 C 1063.3125 259.222656 1063.628906 261.035156 1063.902344 262.855469 C 1064.175781 264.679688 1064.402344 266.503906 1064.585938 268.335938 C 1064.769531 270.167969 1064.910156 272.003906 1065 273.84375 C 1065.09375 275.683594 1065.144531 277.523438 1065.148438 279.367188 C 1065.125 284.292969 1065.347656 289.210938 1065.8125 294.113281 C 1066.28125 299.019531 1066.988281 303.890625 1067.933594 308.726562 C 1068.882812 313.5625 1070.066406 318.335938 1071.488281 323.054688 C 1072.90625 327.773438 1074.558594 332.410156 1076.4375 336.964844 C 1078.316406 341.519531 1080.417969 345.96875 1082.738281 350.316406 C 1085.058594 354.664062 1087.585938 358.886719 1090.324219 362.980469 C 1093.0625 367.078125 1095.996094 371.027344 1099.125 374.835938 C 1102.253906 378.640625 1105.5625 382.28125 1109.050781 385.761719 C 1110.367188 387.0625 1111.648438 388.394531 1112.898438 389.761719 C 1114.144531 391.128906 1115.359375 392.523438 1116.539062 393.949219 C 1117.71875 395.375 1118.863281 396.828125 1119.96875 398.308594 C 1121.078125 399.792969 1122.148438 401.300781 1123.179688 402.835938 C 1124.214844 404.371094 1125.210938 405.929688 1126.164062 407.511719 C 1127.121094 409.097656 1128.039062 410.703125 1128.914062 412.332031 C 1129.792969 413.960938 1130.628906 415.613281 1131.425781 417.28125 C 1132.21875 418.953125 1132.972656 420.644531 1133.6875 422.351562 C 1134.398438 424.058594 1135.066406 425.785156 1135.695312 427.523438 C 1136.320312 429.265625 1136.90625 431.019531 1137.445312 432.789062 C 1137.984375 434.558594 1138.480469 436.34375 1138.933594 438.136719 C 1139.386719 439.929688 1139.792969 441.734375 1140.15625 443.550781 C 1140.519531 445.363281 1140.835938 447.1875 1141.109375 449.015625 C 1141.382812 450.847656 1141.613281 452.683594 1141.792969 454.523438 C 1141.976562 456.367188 1142.113281 458.210938 1142.203125 460.058594 C 1142.296875 461.90625 1142.339844 463.753906 1142.339844 465.605469 C 1142.339844 467.457031 1142.296875 469.304688 1142.203125 471.152344 C 1142.113281 473.003906 1141.976562 474.847656 1141.792969 476.6875 C 1141.613281 478.53125 1141.382812 480.367188 1141.109375 482.195312 C 1140.835938 484.027344 1140.519531 485.847656 1140.15625 487.664062 C 1139.792969 489.476562 1139.386719 491.28125 1138.933594 493.074219 C 1138.480469 494.871094 1137.984375 496.652344 1137.445312 498.421875 C 1136.90625 500.191406 1136.320312 501.945312 1135.695312 503.6875 C 1135.066406 505.429688 1134.398438 507.152344 1133.6875 508.859375 C 1132.972656 510.570312 1132.21875 512.257812 1131.425781 513.929688 C 1130.628906 515.601562 1129.792969 517.25 1128.914062 518.878906 C 1128.039062 520.507812 1127.121094 522.113281 1126.164062 523.699219 C 1125.210938 525.28125 1124.214844 526.84375 1123.179688 528.378906 C 1122.148438 529.914062 1121.078125 531.421875 1119.96875 532.902344 C 1118.863281 534.382812 1117.71875 535.839844 1116.539062 537.265625 C 1115.359375 538.6875 1114.144531 540.085938 1112.894531 541.449219 C 1111.648438 542.816406 1110.367188 544.148438 1109.050781 545.453125 C 1105.601562 548.914062 1102.332031 552.535156 1099.234375 556.316406 C 1096.140625 560.101562 1093.242188 564.027344 1090.53125 568.09375 C 1087.824219 572.164062 1085.324219 576.355469 1083.027344 580.667969 C 1080.730469 584.984375 1078.652344 589.398438 1076.789062 593.917969 C 1074.929688 598.4375 1073.292969 603.035156 1071.882812 607.714844 C 1070.472656 612.394531 1069.296875 617.132812 1068.351562 621.929688 C 1067.410156 626.722656 1066.703125 631.554688 1066.234375 636.417969 C 1065.765625 641.285156 1065.535156 646.160156 1065.546875 651.046875 C 1065.546875 652.898438 1065.5 654.746094 1065.410156 656.589844 C 1065.320312 658.4375 1065.183594 660.28125 1065.003906 662.121094 C 1064.820312 663.960938 1064.59375 665.796875 1064.324219 667.625 C 1064.050781 669.453125 1063.734375 671.277344 1063.375 673.089844 C 1063.015625 674.902344 1062.609375 676.707031 1062.160156 678.5 C 1061.710938 680.292969 1061.21875 682.074219 1060.683594 683.84375 C 1060.144531 685.613281 1059.566406 687.371094 1058.941406 689.109375 C 1058.320312 690.851562 1057.65625 692.574219 1056.949219 694.285156 C 1056.238281 695.992188 1055.492188 697.683594 1054.699219 699.355469 C 1053.910156 701.023438 1053.078125 702.675781 1052.207031 704.308594 C 1051.335938 705.9375 1050.425781 707.546875 1049.476562 709.132812 C 1048.523438 710.71875 1047.535156 712.28125 1046.507812 713.816406 C 1045.480469 715.355469 1044.417969 716.867188 1043.316406 718.351562 C 1042.214844 719.835938 1041.078125 721.292969 1039.90625 722.722656 C 1038.734375 724.152344 1037.527344 725.550781 1036.285156 726.921875 C 1035.042969 728.292969 1033.769531 729.628906 1032.460938 730.9375 C 1031.15625 732.246094 1029.816406 733.519531 1028.445312 734.761719 C 1027.078125 736.003906 1025.675781 737.210938 1024.25 738.382812 C 1022.820312 739.558594 1021.363281 740.695312 1019.878906 741.796875 C 1018.394531 742.898438 1016.882812 743.960938 1015.34375 744.988281 C 1013.808594 746.015625 1012.246094 747.003906 1010.660156 747.957031 C 1009.074219 748.90625 1007.46875 749.816406 1005.835938 750.6875 C 1004.207031 751.558594 1002.554688 752.390625 1000.882812 753.183594 C 999.214844 753.972656 997.523438 754.722656 995.816406 755.429688 C 994.109375 756.136719 992.382812 756.800781 990.644531 757.425781 C 988.902344 758.046875 987.148438 758.628906 985.378906 759.164062 C 983.609375 759.703125 981.828125 760.195312 980.035156 760.644531 C 978.242188 761.09375 976.441406 761.496094 974.625 761.859375 C 972.8125 762.21875 970.992188 762.535156 969.164062 762.804688 C 967.335938 763.078125 965.5 763.304688 963.660156 763.484375 C 961.820312 763.667969 959.980469 763.800781 958.132812 763.894531 C 956.285156 763.984375 954.4375 764.03125 952.589844 764.03125 Z M 748.230469 988.394531 L 748.230469 1088.203125 L 606.136719 1116.148438 L 660.621094 966.039062 C 660.832031 965.464844 661.019531 964.878906 661.175781 964.285156 C 661.328125 963.695312 661.457031 963.09375 661.550781 962.488281 C 661.648438 961.882812 661.714844 961.273438 661.75 960.660156 C 661.785156 960.050781 661.792969 959.4375 661.765625 958.824219 C 661.742188 958.210938 661.6875 957.601562 661.601562 956.992188 C 661.515625 956.386719 661.402344 955.785156 661.257812 955.1875 C 661.109375 954.59375 660.9375 954.003906 660.734375 953.425781 C 660.53125 952.847656 660.300781 952.28125 660.039062 951.722656 C 659.78125 951.167969 659.496094 950.628906 659.183594 950.101562 C 658.867188 949.574219 658.53125 949.0625 658.167969 948.566406 C 657.804688 948.074219 657.417969 947.597656 657.007812 947.144531 C 656.59375 946.6875 656.164062 946.253906 655.710938 945.839844 C 655.257812 945.429688 654.78125 945.039062 654.289062 944.671875 C 653.796875 944.308594 653.289062 943.96875 652.761719 943.652344 C 652.238281 943.335938 651.699219 943.046875 651.144531 942.785156 C 650.589844 942.523438 650.023438 942.292969 649.445312 942.085938 C 647.386719 941.300781 645.257812 940.898438 643.058594 940.886719 C 642.105469 940.921875 641.15625 941.023438 640.21875 941.191406 C 639.277344 941.363281 638.355469 941.597656 637.449219 941.898438 C 636.542969 942.203125 635.664062 942.566406 634.808594 942.996094 C 633.957031 943.425781 633.136719 943.910156 632.355469 944.457031 C 631.570312 945.003906 630.828125 945.601562 630.132812 946.253906 C 629.433594 946.90625 628.789062 947.605469 628.191406 948.351562 C 627.59375 949.097656 627.050781 949.882812 626.566406 950.703125 C 626.082031 951.527344 625.660156 952.378906 625.296875 953.265625 L 563.03125 1124.53125 L 450.273438 1146.492188 L 593.367188 802.355469 C 599.691406 803.039062 605.910156 804.246094 612.03125 805.980469 C 618.152344 807.714844 624.082031 809.949219 629.828125 812.683594 C 635.570312 815.421875 641.042969 818.617188 646.242188 822.28125 C 651.445312 825.941406 656.304688 830.011719 660.820312 834.492188 C 662.558594 836.234375 664.335938 837.933594 666.15625 839.589844 C 667.976562 841.246094 669.839844 842.855469 671.738281 844.417969 C 673.640625 845.980469 675.578125 847.5 677.550781 848.964844 C 679.527344 850.433594 681.535156 851.855469 683.578125 853.222656 C 685.625 854.59375 687.699219 855.910156 689.808594 857.179688 C 691.917969 858.445312 694.058594 859.660156 696.226562 860.824219 C 698.394531 861.984375 700.59375 863.09375 702.816406 864.148438 C 705.039062 865.203125 707.289062 866.199219 709.558594 867.144531 C 711.832031 868.085938 714.128906 868.972656 716.445312 869.804688 C 718.757812 870.636719 721.09375 871.40625 723.449219 872.125 C 725.804688 872.839844 728.171875 873.496094 730.558594 874.097656 C 732.945312 874.695312 735.347656 875.234375 737.757812 875.714844 C 740.171875 876.195312 742.597656 876.617188 745.03125 876.980469 C 747.464844 877.34375 749.90625 877.644531 752.355469 877.886719 C 754.800781 878.125 757.253906 878.308594 759.714844 878.429688 C 762.171875 878.550781 764.628906 878.609375 767.089844 878.609375 C 769.550781 878.609375 772.011719 878.550781 774.46875 878.429688 C 776.925781 878.308594 779.378906 878.125 781.828125 877.886719 C 784.277344 877.644531 786.71875 877.339844 789.152344 876.980469 C 791.585938 876.617188 794.007812 876.195312 796.421875 875.714844 C 798.835938 875.234375 801.234375 874.695312 803.621094 874.097656 C 806.007812 873.496094 808.378906 872.839844 810.730469 872.125 C 813.085938 871.40625 815.421875 870.636719 817.738281 869.804688 C 820.054688 868.972656 822.347656 868.085938 824.621094 867.144531 C 826.894531 866.199219 829.140625 865.203125 831.363281 864.148438 C 833.589844 863.09375 835.785156 861.984375 837.953125 860.824219 C 840.121094 859.660156 842.261719 858.445312 844.371094 857.179688 C 846.480469 855.910156 848.558594 854.59375 850.601562 853.222656 C 852.644531 851.855469 854.65625 850.433594 856.628906 848.964844 C 858.605469 847.5 860.542969 845.980469 862.441406 844.417969 C 864.34375 842.855469 866.203125 841.246094 868.023438 839.589844 C 869.84375 837.933594 871.625 836.234375 873.359375 834.492188 C 877.863281 830.023438 882.707031 825.957031 887.894531 822.300781 C 893.082031 818.648438 898.535156 815.453125 904.261719 812.714844 C 909.988281 809.980469 915.898438 807.742188 922.003906 806.003906 C 928.105469 804.265625 934.308594 803.046875 940.617188 802.355469 L 1083.90625 1146.492188 L 970.949219 1124.53125 L 908.683594 953.265625 C 908.359375 952.367188 907.96875 951.496094 907.511719 950.660156 C 907.054688 949.820312 906.535156 949.023438 905.953125 948.261719 C 905.375 947.503906 904.742188 946.792969 904.054688 946.132812 C 903.363281 945.46875 902.628906 944.863281 901.851562 944.3125 C 901.070312 943.761719 900.25 943.273438 899.398438 942.847656 C 898.542969 942.425781 897.660156 942.066406 896.75 941.777344 C 895.839844 941.484375 894.914062 941.265625 893.96875 941.117188 C 893.027344 940.96875 892.078125 940.890625 891.121094 940.886719 C 888.859375 940.914062 886.664062 941.3125 884.535156 942.085938 C 883.960938 942.292969 883.394531 942.523438 882.839844 942.785156 C 882.285156 943.046875 881.742188 943.335938 881.21875 943.652344 C 880.691406 943.96875 880.183594 944.308594 879.691406 944.671875 C 879.199219 945.039062 878.726562 945.429688 878.273438 945.839844 C 877.816406 946.253906 877.386719 946.6875 876.976562 947.144531 C 876.566406 947.597656 876.175781 948.074219 875.8125 948.566406 C 875.449219 949.0625 875.113281 949.574219 874.800781 950.101562 C 874.484375 950.628906 874.199219 951.167969 873.941406 951.726562 C 873.679688 952.28125 873.449219 952.847656 873.246094 953.425781 C 873.042969 954.003906 872.871094 954.59375 872.726562 955.1875 C 872.582031 955.785156 872.464844 956.386719 872.378906 956.992188 C 872.292969 957.601562 872.238281 958.210938 872.214844 958.824219 C 872.191406 959.4375 872.195312 960.050781 872.230469 960.660156 C 872.265625 961.273438 872.332031 961.882812 872.429688 962.488281 C 872.527344 963.09375 872.652344 963.695312 872.808594 964.285156 C 872.960938 964.878906 873.148438 965.464844 873.359375 966.039062 L 927.84375 1116.148438 L 785.949219 1088.402344 L 785.949219 988.597656 C 786.015625 987.9375 786.050781 987.277344 786.050781 986.617188 C 786.046875 985.953125 786.011719 985.292969 785.941406 984.636719 C 785.871094 983.976562 785.765625 983.324219 785.628906 982.679688 C 785.488281 982.03125 785.316406 981.394531 785.113281 980.765625 C 784.90625 980.136719 784.667969 979.519531 784.398438 978.914062 C 784.128906 978.3125 783.828125 977.722656 783.496094 977.148438 C 783.164062 976.578125 782.804688 976.023438 782.414062 975.488281 C 782.027344 974.953125 781.609375 974.441406 781.167969 973.949219 C 780.722656 973.457031 780.253906 972.992188 779.765625 972.546875 C 779.273438 972.105469 778.757812 971.691406 778.222656 971.300781 C 777.6875 970.914062 777.132812 970.554688 776.558594 970.222656 C 775.984375 969.894531 775.398438 969.59375 774.792969 969.324219 C 774.1875 969.054688 773.570312 968.820312 772.941406 968.613281 C 772.3125 968.410156 771.675781 968.238281 771.027344 968.101562 C 770.378906 967.964844 769.726562 967.863281 769.070312 967.792969 C 768.410156 967.722656 767.75 967.6875 767.089844 967.6875 C 766.429688 967.6875 765.769531 967.722656 765.109375 967.792969 C 764.453125 967.863281 763.800781 967.964844 763.152344 968.101562 C 762.507812 968.238281 761.867188 968.410156 761.238281 968.613281 C 760.609375 968.820312 759.992188 969.054688 759.386719 969.324219 C 758.785156 969.59375 758.195312 969.894531 757.621094 970.222656 C 757.046875 970.554688 756.492188 970.914062 755.957031 971.300781 C 755.421875 971.691406 754.910156 972.105469 754.417969 972.546875 C 753.925781 972.992188 753.457031 973.457031 753.015625 973.949219 C 752.570312 974.441406 752.15625 974.953125 751.765625 975.488281 C 751.375 976.023438 751.015625 976.578125 750.683594 977.148438 C 750.351562 977.722656 750.050781 978.3125 749.78125 978.914062 C 749.511719 979.519531 749.273438 980.136719 749.066406 980.765625 C 748.863281 981.394531 748.691406 982.03125 748.550781 982.679688 C 748.414062 983.324219 748.308594 983.976562 748.238281 984.636719 C 748.167969 985.292969 748.132812 985.953125 748.132812 986.617188 C 748.128906 987.277344 748.164062 987.9375 748.230469 988.597656 Z M 748.230469 988.394531 " fill-opacity="1" fill-rule="nonzero"/><path fill="#231f20" d="M 888.726562 345.039062 C 885.78125 343.265625 882.585938 342.402344 879.148438 342.445312 C 877.519531 342.441406 875.914062 342.648438 874.339844 343.0625 C 872.761719 343.476562 871.265625 344.085938 869.847656 344.890625 C 868.429688 345.695312 867.140625 346.671875 865.976562 347.8125 C 864.8125 348.953125 863.816406 350.226562 862.984375 351.625 L 736.257812 564.414062 L 646.851562 451.433594 C 645.960938 450.332031 644.960938 449.34375 643.851562 448.46875 C 642.738281 447.59375 641.546875 446.851562 640.265625 446.246094 C 638.988281 445.644531 637.65625 445.1875 636.277344 444.882812 C 634.894531 444.582031 633.496094 444.433594 632.082031 444.445312 C 629.980469 444.421875 627.933594 444.753906 625.949219 445.4375 C 623.960938 446.125 622.148438 447.125 620.507812 448.4375 C 620.019531 448.824219 619.550781 449.230469 619.105469 449.65625 C 618.660156 450.085938 618.234375 450.539062 617.832031 451.007812 C 617.429688 451.480469 617.050781 451.972656 616.699219 452.480469 C 616.34375 452.988281 616.015625 453.515625 615.714844 454.054688 C 615.414062 454.597656 615.136719 455.152344 614.890625 455.722656 C 614.644531 456.289062 614.425781 456.871094 614.238281 457.460938 C 614.046875 458.050781 613.890625 458.648438 613.757812 459.253906 C 613.628906 459.859375 613.527344 460.472656 613.460938 461.085938 C 613.390625 461.703125 613.351562 462.320312 613.34375 462.941406 C 613.335938 463.5625 613.355469 464.179688 613.410156 464.796875 C 613.464844 465.414062 613.546875 466.027344 613.660156 466.636719 C 613.773438 467.246094 613.917969 467.847656 614.09375 468.445312 C 614.265625 469.039062 614.46875 469.625 614.699219 470.199219 C 614.929688 470.773438 615.191406 471.335938 615.476562 471.886719 C 615.765625 472.4375 616.078125 472.96875 616.417969 473.488281 C 616.757812 474.003906 617.125 474.507812 617.511719 474.988281 L 723.683594 608.929688 C 724.597656 610 725.617188 610.960938 726.734375 611.816406 C 727.851562 612.671875 729.046875 613.402344 730.320312 614.003906 C 731.59375 614.605469 732.914062 615.066406 734.285156 615.390625 C 735.65625 615.710938 737.042969 615.886719 738.453125 615.914062 L 739.648438 615.914062 C 741.175781 615.820312 742.667969 615.539062 744.128906 615.078125 C 745.585938 614.617188 746.96875 613.984375 748.273438 613.183594 C 749.578125 612.382812 750.765625 611.4375 751.839844 610.347656 C 752.914062 609.253906 753.839844 608.050781 754.617188 606.734375 L 895.3125 371.585938 C 895.621094 371.039062 895.902344 370.480469 896.15625 369.90625 C 896.410156 369.332031 896.636719 368.746094 896.835938 368.148438 C 897.035156 367.554688 897.207031 366.949219 897.351562 366.335938 C 897.492188 365.726562 897.605469 365.109375 897.691406 364.484375 C 897.773438 363.863281 897.828125 363.238281 897.851562 362.609375 C 897.878906 361.980469 897.875 361.355469 897.839844 360.726562 C 897.804688 360.101562 897.742188 359.476562 897.648438 358.855469 C 897.554688 358.234375 897.433594 357.617188 897.28125 357.007812 C 897.128906 356.398438 896.949219 355.796875 896.742188 355.203125 C 896.535156 354.609375 896.300781 354.03125 896.035156 353.457031 C 895.773438 352.886719 895.484375 352.332031 895.167969 351.789062 C 894.851562 351.246094 894.511719 350.71875 894.148438 350.207031 C 893.78125 349.695312 893.394531 349.203125 892.980469 348.726562 C 892.570312 348.253906 892.136719 347.800781 891.683594 347.367188 C 891.226562 346.933594 890.753906 346.523438 890.261719 346.132812 C 889.765625 345.746094 889.253906 345.378906 888.726562 345.039062 Z M 888.726562 345.039062 " fill-opacity="1" fill-rule="nonzero"/><path fill="#231f20" d="M 766.992188 191.933594 C 762.515625 191.933594 758.042969 192.042969 753.574219 192.265625 C 749.105469 192.484375 744.644531 192.8125 740.191406 193.25 C 735.738281 193.691406 731.300781 194.238281 726.875 194.894531 C 722.445312 195.550781 718.039062 196.316406 713.652344 197.191406 C 709.261719 198.0625 704.898438 199.042969 700.558594 200.128906 C 696.21875 201.21875 691.90625 202.410156 687.625 203.710938 C 683.34375 205.007812 679.09375 206.414062 674.882812 207.921875 C 670.667969 209.429688 666.496094 211.039062 662.359375 212.75 C 658.226562 214.464844 654.136719 216.277344 650.09375 218.191406 C 646.046875 220.105469 642.050781 222.117188 638.105469 224.226562 C 634.160156 226.335938 630.269531 228.542969 626.429688 230.84375 C 622.59375 233.144531 618.8125 235.535156 615.09375 238.023438 C 611.371094 240.507812 607.714844 243.085938 604.121094 245.753906 C 600.527344 248.417969 597 251.171875 593.542969 254.011719 C 590.082031 256.847656 586.695312 259.773438 583.378906 262.777344 C 580.066406 265.78125 576.824219 268.867188 573.660156 272.03125 C 570.496094 275.199219 567.414062 278.4375 564.40625 281.753906 C 561.402344 285.070312 558.480469 288.457031 555.640625 291.917969 C 552.804688 295.378906 550.050781 298.90625 547.386719 302.5 C 544.71875 306.09375 542.144531 309.753906 539.660156 313.472656 C 537.171875 317.195312 534.78125 320.976562 532.480469 324.8125 C 530.179688 328.652344 527.972656 332.546875 525.863281 336.492188 C 523.753906 340.441406 521.746094 344.4375 519.832031 348.480469 C 517.917969 352.527344 516.105469 356.617188 514.394531 360.753906 C 512.679688 364.886719 511.070312 369.0625 509.5625 373.277344 C 508.054688 377.492188 506.652344 381.738281 505.355469 386.023438 C 504.054688 390.304688 502.863281 394.617188 501.773438 398.957031 C 500.6875 403.300781 499.707031 407.664062 498.835938 412.054688 C 497.960938 416.445312 497.195312 420.851562 496.539062 425.28125 C 495.882812 429.707031 495.335938 434.148438 494.898438 438.601562 C 494.457031 443.054688 494.128906 447.519531 493.910156 451.988281 C 493.691406 456.457031 493.582031 460.929688 493.582031 465.40625 C 493.582031 469.882812 493.691406 474.355469 493.910156 478.824219 C 494.128906 483.296875 494.457031 487.757812 494.898438 492.210938 C 495.335938 496.664062 495.882812 501.105469 496.539062 505.53125 C 497.195312 509.960938 497.960938 514.367188 498.835938 518.757812 C 499.707031 523.148438 500.6875 527.511719 501.773438 531.855469 C 502.863281 536.195312 504.054688 540.507812 505.355469 544.792969 C 506.652344 549.074219 508.054688 553.324219 509.5625 557.535156 C 511.070312 561.75 512.679688 565.925781 514.394531 570.058594 C 516.105469 574.195312 517.917969 578.285156 519.832031 582.332031 C 521.746094 586.375 523.753906 590.371094 525.863281 594.320312 C 527.972656 598.265625 530.179688 602.160156 532.480469 606 C 534.78125 609.835938 537.171875 613.617188 539.660156 617.339844 C 542.144531 621.058594 544.71875 624.71875 547.386719 628.3125 C 550.050781 631.90625 552.804688 635.433594 555.640625 638.894531 C 558.480469 642.355469 561.402344 645.742188 564.40625 649.058594 C 567.414062 652.375 570.496094 655.617188 573.660156 658.78125 C 576.824219 661.945312 580.066406 665.03125 583.378906 668.035156 C 586.695312 671.042969 590.082031 673.964844 593.542969 676.804688 C 597 679.640625 600.527344 682.394531 604.121094 685.0625 C 607.714844 687.726562 611.371094 690.304688 615.09375 692.789062 C 618.8125 695.277344 622.59375 697.671875 626.429688 699.972656 C 630.269531 702.273438 634.160156 704.476562 638.105469 706.585938 C 642.050781 708.695312 646.046875 710.707031 650.09375 712.621094 C 654.136719 714.535156 658.226562 716.347656 662.359375 718.0625 C 666.496094 719.773438 670.667969 721.382812 674.882812 722.890625 C 679.09375 724.398438 683.34375 725.804688 687.625 727.101562 C 691.90625 728.402344 696.21875 729.59375 700.558594 730.683594 C 704.898438 731.769531 709.261719 732.75 713.652344 733.625 C 718.039062 734.496094 722.445312 735.261719 726.875 735.917969 C 731.300781 736.574219 735.738281 737.121094 740.191406 737.5625 C 744.644531 738 749.105469 738.328125 753.574219 738.546875 C 758.042969 738.769531 762.515625 738.878906 766.992188 738.878906 C 771.464844 738.878906 775.9375 738.769531 780.40625 738.546875 C 784.875 738.328125 789.335938 738 793.789062 737.5625 C 798.242188 737.121094 802.683594 736.574219 807.109375 735.917969 C 811.535156 735.261719 815.941406 734.496094 820.332031 733.625 C 824.71875 732.75 829.082031 731.769531 833.421875 730.683594 C 837.765625 729.59375 842.074219 728.402344 846.355469 727.101562 C 850.640625 725.804688 854.886719 724.398438 859.097656 722.890625 C 863.3125 721.382812 867.484375 719.773438 871.621094 718.0625 C 875.753906 716.347656 879.84375 714.535156 883.886719 712.621094 C 887.933594 710.707031 891.929688 708.695312 895.875 706.585938 C 899.820312 704.476562 903.714844 702.273438 907.550781 699.972656 C 911.390625 697.671875 915.167969 695.277344 918.890625 692.789062 C 922.609375 690.304688 926.265625 687.726562 929.859375 685.0625 C 933.453125 682.394531 936.980469 679.640625 940.441406 676.804688 C 943.898438 673.964844 947.285156 671.042969 950.601562 668.035156 C 953.917969 665.03125 957.15625 661.945312 960.320312 658.78125 C 963.484375 655.617188 966.570312 652.375 969.574219 649.058594 C 972.578125 645.742188 975.5 642.355469 978.339844 638.894531 C 981.175781 635.433594 983.929688 631.90625 986.59375 628.3125 C 989.261719 624.71875 991.835938 621.058594 994.324219 617.339844 C 996.808594 613.617188 999.203125 609.835938 1001.5 606 C 1003.800781 602.160156 1006.007812 598.265625 1008.117188 594.320312 C 1010.226562 590.371094 1012.238281 586.375 1014.148438 582.332031 C 1016.0625 578.285156 1017.875 574.195312 1019.589844 570.058594 C 1021.300781 565.925781 1022.910156 561.75 1024.417969 557.535156 C 1025.925781 553.324219 1027.328125 549.074219 1028.628906 544.792969 C 1029.925781 540.507812 1031.121094 536.195312 1032.207031 531.855469 C 1033.292969 527.511719 1034.273438 523.148438 1035.148438 518.757812 C 1036.019531 514.367188 1036.785156 509.960938 1037.441406 505.53125 C 1038.097656 501.105469 1038.644531 496.664062 1039.082031 492.210938 C 1039.523438 487.757812 1039.851562 483.296875 1040.070312 478.824219 C 1040.289062 474.355469 1040.398438 469.882812 1040.398438 465.40625 C 1040.394531 460.933594 1040.277344 456.460938 1040.050781 451.992188 C 1039.828125 447.527344 1039.492188 443.066406 1039.046875 438.613281 C 1038.605469 434.164062 1038.050781 429.722656 1037.390625 425.300781 C 1036.726562 420.875 1035.957031 416.46875 1035.082031 412.082031 C 1034.203125 407.695312 1033.21875 403.332031 1032.128906 398.996094 C 1031.035156 394.65625 1029.839844 390.347656 1028.539062 386.066406 C 1027.234375 381.785156 1025.828125 377.539062 1024.320312 373.328125 C 1022.808594 369.117188 1021.195312 364.949219 1019.480469 360.816406 C 1017.765625 356.683594 1015.953125 352.597656 1014.039062 348.554688 C 1012.121094 344.511719 1010.109375 340.515625 1008 336.570312 C 1005.886719 332.628906 1003.683594 328.738281 1001.382812 324.902344 C 999.082031 321.066406 996.6875 317.285156 994.199219 313.566406 C 991.714844 309.847656 989.136719 306.191406 986.472656 302.601562 C 983.808594 299.007812 981.054688 295.484375 978.21875 292.023438 C 975.378906 288.566406 972.457031 285.179688 969.453125 281.867188 C 966.449219 278.550781 963.367188 275.3125 960.203125 272.148438 C 957.042969 268.984375 953.804688 265.902344 950.488281 262.898438 C 947.175781 259.890625 943.789062 256.972656 940.332031 254.132812 C 936.875 251.292969 933.351562 248.539062 929.757812 245.875 C 926.167969 243.207031 922.511719 240.632812 918.792969 238.144531 C 915.078125 235.660156 911.300781 233.265625 907.464844 230.960938 C 903.628906 228.660156 899.738281 226.453125 895.796875 224.34375 C 891.851562 222.230469 887.859375 220.21875 883.816406 218.304688 C 879.777344 216.386719 875.6875 214.574219 871.558594 212.859375 C 867.425781 211.144531 863.257812 209.53125 859.046875 208.019531 C 854.835938 206.507812 850.59375 205.101562 846.3125 203.800781 C 842.035156 202.496094 837.726562 201.300781 833.386719 200.207031 C 829.050781 199.117188 824.6875 198.132812 820.300781 197.253906 C 815.917969 196.378906 811.511719 195.609375 807.089844 194.945312 C 802.664062 194.285156 798.226562 193.730469 793.777344 193.289062 C 789.328125 192.84375 784.867188 192.507812 780.398438 192.28125 C 775.933594 192.058594 771.464844 191.941406 766.992188 191.933594 Z M 766.992188 701.152344 C 763.132812 701.152344 759.277344 701.054688 755.425781 700.867188 C 751.574219 700.679688 747.726562 700.394531 743.890625 700.015625 C 740.050781 699.636719 736.222656 699.164062 732.40625 698.597656 C 728.59375 698.035156 724.792969 697.375 721.007812 696.621094 C 717.226562 695.867188 713.464844 695.023438 709.722656 694.085938 C 705.980469 693.148438 702.265625 692.121094 698.574219 691 C 694.882812 689.878906 691.21875 688.671875 687.589844 687.371094 C 683.957031 686.070312 680.359375 684.683594 676.796875 683.207031 C 673.230469 681.730469 669.707031 680.167969 666.21875 678.515625 C 662.734375 676.867188 659.289062 675.132812 655.886719 673.316406 C 652.484375 671.496094 649.128906 669.59375 645.820312 667.609375 C 642.511719 665.628906 639.253906 663.5625 636.046875 661.421875 C 632.839844 659.277344 629.6875 657.054688 626.589844 654.757812 C 623.492188 652.460938 620.453125 650.085938 617.46875 647.640625 C 614.488281 645.191406 611.566406 642.671875 608.710938 640.082031 C 605.851562 637.492188 603.058594 634.832031 600.332031 632.101562 C 597.605469 629.375 594.945312 626.582031 592.355469 623.722656 C 589.765625 620.863281 587.246094 617.945312 584.800781 614.960938 C 582.351562 611.980469 579.980469 608.9375 577.683594 605.839844 C 575.382812 602.742188 573.164062 599.585938 571.019531 596.378906 C 568.878906 593.171875 566.816406 589.914062 564.832031 586.601562 C 562.847656 583.292969 560.949219 579.9375 559.128906 576.535156 C 557.3125 573.132812 555.578125 569.6875 553.929688 566.199219 C 552.277344 562.710938 550.714844 559.1875 549.242188 555.621094 C 547.765625 552.058594 546.375 548.460938 545.078125 544.828125 C 543.777344 541.195312 542.566406 537.53125 541.449219 533.839844 C 540.328125 530.148438 539.300781 526.429688 538.363281 522.6875 C 537.425781 518.945312 536.582031 515.183594 535.828125 511.398438 C 535.074219 507.613281 534.417969 503.8125 533.851562 499.996094 C 533.285156 496.179688 532.8125 492.351562 532.433594 488.511719 C 532.054688 484.675781 531.773438 480.828125 531.582031 476.972656 C 531.394531 473.121094 531.300781 469.265625 531.300781 465.40625 C 531.300781 461.546875 531.394531 457.691406 531.582031 453.839844 C 531.773438 449.984375 532.054688 446.140625 532.433594 442.300781 C 532.8125 438.460938 533.285156 434.632812 533.851562 430.816406 C 534.417969 427 535.074219 423.199219 535.828125 419.414062 C 536.582031 415.632812 537.425781 411.867188 538.363281 408.125 C 539.300781 404.382812 540.328125 400.664062 541.449219 396.972656 C 542.566406 393.28125 543.777344 389.621094 545.078125 385.988281 C 546.375 382.355469 547.765625 378.753906 549.242188 375.191406 C 550.714844 371.625 552.277344 368.101562 553.929688 364.613281 C 555.578125 361.125 557.3125 357.679688 559.128906 354.277344 C 560.949219 350.875 562.847656 347.519531 564.832031 344.210938 C 566.816406 340.898438 568.878906 337.640625 571.019531 334.433594 C 573.164062 331.226562 575.382812 328.074219 577.683594 324.972656 C 579.980469 321.875 582.351562 318.835938 584.800781 315.851562 C 587.246094 312.871094 589.765625 309.949219 592.355469 307.089844 C 594.945312 304.230469 597.605469 301.4375 600.332031 298.710938 C 603.058594 295.980469 605.851562 293.320312 608.710938 290.730469 C 611.566406 288.140625 614.488281 285.621094 617.46875 283.171875 C 620.453125 280.726562 623.492188 278.351562 626.589844 276.054688 C 629.6875 273.757812 632.839844 271.535156 636.046875 269.390625 C 639.253906 267.25 642.511719 265.183594 645.820312 263.203125 C 649.128906 261.21875 652.484375 259.316406 655.886719 257.5 C 659.289062 255.679688 662.734375 253.945312 666.21875 252.296875 C 669.707031 250.644531 673.230469 249.082031 676.796875 247.605469 C 680.359375 246.128906 683.957031 244.742188 687.589844 243.441406 C 691.21875 242.144531 694.882812 240.933594 698.574219 239.8125 C 702.265625 238.691406 705.980469 237.664062 709.722656 236.726562 C 713.464844 235.789062 717.226562 234.945312 721.007812 234.191406 C 724.792969 233.4375 728.59375 232.78125 732.40625 232.214844 C 736.222656 231.648438 740.050781 231.175781 743.890625 230.796875 C 747.726562 230.417969 751.574219 230.136719 755.425781 229.945312 C 759.277344 229.757812 763.132812 229.660156 766.992188 229.660156 C 770.847656 229.660156 774.703125 229.757812 778.554688 229.945312 C 782.40625 230.136719 786.253906 230.417969 790.09375 230.796875 C 793.929688 231.175781 797.757812 231.648438 801.574219 232.214844 C 805.390625 232.78125 809.1875 233.4375 812.972656 234.191406 C 816.753906 234.945312 820.515625 235.789062 824.257812 236.726562 C 828 237.664062 831.71875 238.691406 835.40625 239.8125 C 839.097656 240.933594 842.761719 242.144531 846.390625 243.441406 C 850.023438 244.742188 853.621094 246.128906 857.1875 247.605469 C 860.75 249.082031 864.273438 250.644531 867.761719 252.296875 C 871.25 253.945312 874.691406 255.679688 878.09375 257.5 C 881.496094 259.316406 884.851562 261.21875 888.160156 263.203125 C 891.46875 265.183594 894.726562 267.25 897.933594 269.390625 C 901.140625 271.535156 904.292969 273.757812 907.390625 276.054688 C 910.488281 278.351562 913.53125 280.726562 916.511719 283.171875 C 919.492188 285.621094 922.414062 288.140625 925.269531 290.730469 C 928.128906 293.320312 930.921875 295.980469 933.648438 298.710938 C 936.375 301.4375 939.035156 304.230469 941.625 307.089844 C 944.214844 309.949219 946.734375 312.871094 949.183594 315.851562 C 951.628906 318.835938 954 321.875 956.300781 324.972656 C 958.597656 328.074219 960.816406 331.226562 962.960938 334.433594 C 965.101562 337.640625 967.167969 340.898438 969.148438 344.210938 C 971.132812 347.519531 973.035156 350.875 974.851562 354.277344 C 976.667969 357.679688 978.402344 361.125 980.054688 364.613281 C 981.703125 368.101562 983.265625 371.625 984.742188 375.191406 C 986.21875 378.753906 987.605469 382.355469 988.902344 385.988281 C 990.203125 389.621094 991.414062 393.28125 992.53125 396.972656 C 993.652344 400.664062 994.679688 404.382812 995.617188 408.125 C 996.554688 411.867188 997.398438 415.632812 998.152344 419.414062 C 998.90625 423.199219 999.566406 427 1000.128906 430.816406 C 1000.695312 434.632812 1001.167969 438.460938 1001.546875 442.300781 C 1001.925781 446.140625 1002.207031 449.984375 1002.398438 453.839844 C 1002.585938 457.691406 1002.679688 461.546875 1002.683594 465.40625 C 1002.675781 469.261719 1002.574219 473.117188 1002.378906 476.96875 C 1002.183594 480.820312 1001.894531 484.664062 1001.511719 488.5 C 1001.128906 492.339844 1000.648438 496.164062 1000.078125 499.976562 C 999.507812 503.792969 998.84375 507.589844 998.085938 511.371094 C 997.328125 515.152344 996.480469 518.914062 995.539062 522.652344 C 994.597656 526.390625 993.566406 530.105469 992.445312 533.796875 C 991.320312 537.484375 990.109375 541.144531 988.804688 544.773438 C 987.503906 548.402344 986.113281 552 984.632812 555.558594 C 983.15625 559.121094 981.589844 562.644531 979.941406 566.128906 C 978.289062 569.613281 976.554688 573.058594 974.734375 576.457031 C 972.914062 579.855469 971.011719 583.210938 969.027344 586.515625 C 967.046875 589.824219 964.980469 593.078125 962.839844 596.285156 C 960.695312 599.492188 958.472656 602.640625 956.175781 605.738281 C 953.878906 608.835938 951.507812 611.875 949.058594 614.855469 C 946.613281 617.835938 944.097656 620.753906 941.507812 623.609375 C 938.917969 626.46875 936.257812 629.257812 933.53125 631.988281 C 930.804688 634.714844 928.015625 637.371094 925.160156 639.960938 C 922.300781 642.550781 919.382812 645.070312 916.402344 647.515625 C 913.425781 649.964844 910.386719 652.335938 907.289062 654.636719 C 904.195312 656.933594 901.042969 659.15625 897.839844 661.296875 C 894.632812 663.441406 891.378906 665.507812 888.074219 667.492188 C 884.765625 669.476562 881.414062 671.378906 878.015625 673.195312 C 874.617188 675.015625 871.175781 676.753906 867.691406 678.402344 C 864.207031 680.054688 860.683594 681.621094 857.125 683.097656 C 853.5625 684.578125 849.96875 685.96875 846.339844 687.273438 C 842.710938 688.574219 839.050781 689.789062 835.363281 690.910156 C 831.675781 692.035156 827.960938 693.066406 824.222656 694.007812 C 820.484375 694.949219 816.722656 695.796875 812.945312 696.554688 C 809.164062 697.3125 805.367188 697.976562 801.554688 698.546875 C 797.742188 699.117188 793.917969 699.597656 790.078125 699.980469 C 786.242188 700.363281 782.398438 700.652344 778.550781 700.847656 C 774.699219 701.042969 770.847656 701.144531 766.992188 701.152344 Z M 766.992188 701.152344 " fill-opacity="1" fill-rule="nonzero"/></svg>