<svg xmlns="http://www.w3.org/2000/svg" xmlns:xlink="http://www.w3.org/1999/xlink" width="2048" zoomAndPan="magnify" viewBox="0 0 1536 1228.499963" height="1638" preserveAspectRatio="xMidYMid meet" version="1.0"><defs><clipPath id="11ade546ca"><path d="M 0.3125 0 L 1535.6875 0 L 1535.6875 1228 L 0.3125 1228 Z M 0.3125 0 " clip-rule="nonzero"/></clipPath><clipPath id="55be46fa11"><path d="M 467 917 L 1067 917 L 1067 1193.695312 L 467 1193.695312 Z M 467 917 " clip-rule="nonzero"/></clipPath><clipPath id="7caa28a56c"><path d="M 399 34.664062 L 1136 34.664062 L 1136 1035 L 399 1035 Z M 399 34.664062 " clip-rule="nonzero"/></clipPath></defs><g clip-path="url(#11ade546ca)"><path fill="#ffffff" d="M 0.3125 0 L 1535.6875 0 L 1535.6875 1228 L 0.3125 1228 Z M 0.3125 0 " fill-opacity="1" fill-rule="nonzero"/><path fill="#ffffff" d="M 0.3125 0 L 1535.6875 0 L 1535.6875 1228 L 0.3125 1228 Z M 0.3125 0 " fill-opacity="1" fill-rule="nonzero"/></g><g clip-path="url(#55be46fa11)"><path fill="#000000" d="M 584.453125 982.996094 C 588.484375 980.933594 592.667969 978.964844 596.929688 977.097656 C 612.355469 970.335938 619.386719 952.34375 612.640625 936.917969 C 605.878906 921.488281 587.867188 914.496094 572.46875 921.21875 C 567.109375 923.5625 561.921875 926.023438 556.746094 928.648438 C 499.511719 957.984375 467.96875 997.136719 467.96875 1038.898438 C 467.96875 1080.882812 499.511719 1120.082031 556.796875 1149.289062 C 613.011719 1177.917969 687.808594 1193.695312 767.40625 1193.695312 C 847.03125 1193.695312 921.816406 1177.917969 978.007812 1149.289062 C 1035.277344 1120.070312 1066.824219 1080.867188 1066.824219 1038.898438 C 1066.824219 997.148438 1035.289062 958 978.007812 928.625 C 972.121094 925.625 966.003906 922.765625 959.734375 920.058594 C 944.246094 913.414062 926.320312 920.535156 919.664062 935.988281 C 913.007812 951.46875 920.140625 969.421875 935.605469 976.066406 C 940.664062 978.257812 945.558594 980.546875 950.234375 982.917969 C 991.28125 1003.960938 1005.84375 1026.214844 1005.84375 1038.886719 C 1005.84375 1051.675781 991.292969 1074.03125 950.308594 1094.929688 C 902.539062 1119.296875 837.582031 1132.691406 767.40625 1132.691406 C 697.246094 1132.691406 632.289062 1119.296875 584.507812 1094.929688 C 543.496094 1074.042969 528.972656 1051.6875 528.972656 1038.886719 C 528.960938 1026.226562 543.507812 1003.972656 584.453125 982.996094 Z M 584.453125 982.996094 " fill-opacity="1" fill-rule="nonzero"/></g><g clip-path="url(#7caa28a56c)"><path fill="#000000" d="M 771.4375 34.769531 C 770.613281 34.703125 769.789062 34.664062 768.953125 34.664062 L 765.875 34.664062 C 765.039062 34.664062 764.214844 34.703125 763.417969 34.769531 C 562.476562 37.730469 399.402344 203.058594 399.402344 403.804688 C 396.234375 603.53125 549.035156 786.308594 660.601562 919.75 C 693.320312 958.886719 721.582031 992.707031 740.703125 1020.703125 C 746.367188 1029.019531 755.808594 1034.003906 765.890625 1034.003906 L 768.964844 1034.003906 C 779.046875 1034.003906 788.484375 1029.019531 794.164062 1020.703125 C 813.257812 992.691406 841.535156 958.886719 874.253906 919.738281 C 985.808594 786.296875 1138.59375 603.503906 1135.4375 404.292969 C 1135.425781 203.070312 972.339844 37.757812 771.4375 34.769531 Z M 827.449219 880.613281 C 805.042969 907.425781 784.660156 931.804688 767.40625 954.070312 C 750.15625 931.804688 729.785156 907.425781 707.382812 880.628906 C 601.953125 754.511719 457.574219 581.792969 460.382812 404.292969 C 460.382812 235.667969 597.535156 97.253906 766.144531 95.734375 C 766.570312 95.734375 766.984375 95.71875 767.40625 95.695312 C 767.832031 95.71875 768.246094 95.734375 768.683594 95.734375 C 937.265625 97.253906 1074.433594 235.667969 1074.433594 404.769531 C 1077.242188 581.792969 932.875 754.5 827.449219 880.613281 Z M 827.449219 880.613281 " fill-opacity="1" fill-rule="nonzero"/></g><path fill="#000000" d="M 767.40625 269.535156 C 692.882812 270.347656 632.636719 330.359375 632.636719 404.34375 C 632.636719 478.328125 692.816406 538.328125 767.40625 539.140625 C 842.011719 538.328125 902.179688 478.328125 902.179688 404.34375 C 902.179688 330.359375 841.933594 270.347656 767.40625 269.535156 Z M 767.40625 269.535156 " fill-opacity="1" fill-rule="nonzero"/></svg>